<?xml version="1.0" encoding="UTF-8"?>
<svg xmlns="http://www.w3.org/2000/svg" viewBox="0 0 400 300">
  <defs>
    <style>
      @keyframes float {
        0% { transform: translateY(0); }
        50% { transform: translateY(-8px); }
        100% { transform: translateY(0); }
      }
      @keyframes glow {
        0%, 100% { filter: brightness(1); }
        50% { filter: brightness(1.2); }
      }
      @keyframes rotate {
        from { transform: rotate(0deg); }
        to { transform: rotate(360deg); }
      }
      @keyframes heartbeat {
        0% { transform: scale(1); }
        14% { transform: scale(1.1); }
        28% { transform: scale(1); }
        42% { transform: scale(1.1); }
        70% { transform: scale(1); }
      }
      .float {
        animation: float 4s ease-in-out infinite;
      }
      .glow {
        animation: glow 2s ease-in-out infinite;
      }
      .rotate {
        animation: rotate 24s linear infinite;
        transform-origin: center;
      }
      .heartbeat {
        animation: heartbeat 2s ease-in-out infinite;
      }
      .delay-1 { animation-delay: 0.3s; }
      .delay-2 { animation-delay: 0.6s; }
      .delay-3 { animation-delay: 0.9s; }
    </style>
    
    <!-- 渐变定义 -->
    <linearGradient id="circle-gradient" x1="0%" y1="0%" x2="100%" y2="100%">
      <stop offset="0%" style="stop-color:#60A5FA;stop-opacity:0.2"/>
      <stop offset="100%" style="stop-color:#34D399;stop-opacity:0.2"/>
    </linearGradient>
  </defs>

  <!-- 主背景 -->
  <rect width="400" height="300" fill="#FFFFFF"/>
  
  <!-- 中心圆环 - 代表生活的循环 -->
  <g class="rotate">
    <circle cx="200" cy="150" r="90" fill="url(#circle-gradient)" stroke="#E5E7EB" stroke-width="2"/>
    <circle cx="200" cy="150" r="70" fill="none" stroke="#60A5FA" stroke-width="2" stroke-dasharray="4,4"/>
  </g>
  
  <!-- 书本元素 - 代表学习 -->
  <g class="float">
    <rect x="160" y="100" width="35" height="45" rx="2" fill="#60A5FA" opacity="0.8"/>
    <rect x="163" y="103" width="29" height="39" rx="1" fill="white"/>
    <line x1="168" y1="110" x2="187" y2="110" stroke="#60A5FA" stroke-width="1"/>
    <line x1="168" y1="115" x2="187" y2="115" stroke="#60A5FA" stroke-width="1"/>
    <line x1="168" y1="120" x2="187" y2="120" stroke="#60A5FA" stroke-width="1"/>
  </g>
  
  <!-- 运动元素 -->
  <g class="float delay-1">
    <circle cx="240" cy="100" r="20" fill="#34D399" opacity="0.8"/>
    <!-- 跑步人形 -->
    <path d="M235 95 Q240 90, 245 95 T 250 100" stroke="white" stroke-width="2" fill="none"/>
    <circle cx="240" cy="93" r="3" fill="white"/>
  </g>
  
  <!-- 创意灯泡 - 代表创造性思维 -->
  <g class="glow delay-2">
    <circle cx="200" cy="180" r="18" fill="#FCD34D" opacity="0.8"/>
    <path d="M193 180 L 207 180 M200 173 L 200 187" stroke="white" stroke-width="2"/>
  </g>
  
  <!-- 心形 - 代表积极心态 -->
  <g class="heartbeat delay-3">
    <path d="M195 150 
             C 195 147, 193 145, 190 145 
             C 187 145, 185 147, 185 150
             C 185 155, 190 158, 195 162
             C 200 158, 205 155, 205 150
             C 205 147, 203 145, 200 145
             C 197 145, 195 147, 195 150" 
          fill="#F472B6" opacity="0.8"/>
  </g>
  
  <!-- 音符 - 代表生活乐趣 -->
  <g class="float delay-2">
    <path d="M160 180 Q 165 170, 170 180" stroke="#60A5FA" stroke-width="2" fill="none"/>
    <circle cx="160" cy="180" r="4" fill="#60A5FA" opacity="0.8"/>
  </g>
  
  <!-- 咖啡杯 - 代表生活品质 -->
  <g class="float delay-1">
    <path d="M230 180 Q 240 180, 250 180" stroke="#34D399" stroke-width="2"/>
    <path d="M235 180 L 235 190 Q 240 190, 245 190 L 245 180" fill="none" stroke="#34D399" stroke-width="2"/>
  </g>
  
  <!-- 连接线 -->
  <path d="M140 150 Q 200 100 260 150" stroke="#E5E7EB" stroke-width="1" fill="none" stroke-dasharray="4,4"/>
  <path d="M140 150 Q 200 200 260 150" stroke="#E5E7EB" stroke-width="1" fill="none" stroke-dasharray="4,4"/>
  
  <!-- 装饰小圆点 -->
  <circle cx="160" cy="120" r="3" fill="#60A5FA" opacity="0.4" class="float"/>
  <circle cx="240" cy="120" r="3" fill="#34D399" opacity="0.4" class="float delay-1"/>
  <circle cx="160" cy="180" r="3" fill="#34D399" opacity="0.4" class="float delay-2"/>
  <circle cx="240" cy="180" r="3" fill="#60A5FA" opacity="0.4" class="float"/>
</svg> 