<?xml version="1.0" encoding="UTF-8"?>
<svg xmlns="http://www.w3.org/2000/svg" viewBox="0 0 400 300">
  <defs>
    <style>
      @keyframes pulse {
        0% { transform: scale(1); opacity: 0.6; }
        50% { transform: scale(1.05); opacity: 0.8; }
        100% { transform: scale(1); opacity: 0.6; }
      }
      @keyframes flow {
        0% { stroke-dashoffset: 24; }
        100% { stroke-dashoffset: 0; }
      }
      @keyframes blink {
        0%, 100% { opacity: 0.4; }
        50% { opacity: 0.8; }
      }
      @keyframes float {
        0% { transform: translateY(0); }
        50% { transform: translateY(-4px); }
        100% { transform: translateY(0); }
      }
      .pulse {
        animation: pulse 3s ease-in-out infinite;
      }
      .flow {
        stroke-dasharray: 12, 12;
        animation: flow 3s linear infinite;
      }
      .blink {
        animation: blink 2s ease-in-out infinite;
      }
      .float {
        animation: float 4s ease-in-out infinite;
      }
      .delay-1 { animation-delay: 0.3s; }
      .delay-2 { animation-delay: 0.6s; }
      .delay-3 { animation-delay: 0.9s; }
    </style>
    <linearGradient id="server-gradient" x1="0%" y1="0%" x2="100%" y2="100%">
      <stop offset="0%" style="stop-color:#60A5FA;stop-opacity:0.1"/>
      <stop offset="100%" style="stop-color:#34D399;stop-opacity:0.1"/>
    </linearGradient>
  </defs>

  <!-- 主背景 -->
  <rect width="400" height="300" fill="#FFFFFF"/>
  
  <!-- 中央负载均衡器 -->
  <g class="pulse">
    <rect x="170" y="120" width="60" height="60" rx="8" fill="#60A5FA" opacity="0.8"/>
    <path d="M180 150 H 220" stroke="white" stroke-width="2"/>
    <path d="M200 130 V 170" stroke="white" stroke-width="2"/>
  </g>

  <!-- 服务器集群 -->
  <g class="float">
    <!-- 服务器1 -->
    <rect x="100" y="200" width="50" height="60" rx="4" fill="url(#server-gradient)" stroke="#E5E7EB" stroke-width="2"/>
    <circle cx="110" cy="210" r="3" fill="#34D399" class="blink"/>
    <rect x="115" y="208" width="25" height="4" rx="1" fill="#60A5FA" opacity="0.4"/>
    
    <!-- 服务器2 -->
    <rect x="175" y="200" width="50" height="60" rx="4" fill="url(#server-gradient)" stroke="#E5E7EB" stroke-width="2"/>
    <circle cx="185" cy="210" r="3" fill="#34D399" class="blink delay-1"/>
    <rect x="190" y="208" width="25" height="4" rx="1" fill="#60A5FA" opacity="0.4"/>
    
    <!-- 服务器3 -->
    <rect x="250" y="200" width="50" height="60" rx="4" fill="url(#server-gradient)" stroke="#E5E7EB" stroke-width="2"/>
    <circle cx="260" cy="210" r="3" fill="#34D399" class="blink delay-2"/>
    <rect x="265" y="208" width="25" height="4" rx="1" fill="#60A5FA" opacity="0.4"/>
  </g>

  <!-- 数据流动线 -->
  <g>
    <!-- 负载均衡到服务器的连接线 -->
    <path d="M200 180 L 125 200" stroke="#60A5FA" stroke-width="2" class="flow"/>
    <path d="M200 180 L 200 200" stroke="#60A5FA" stroke-width="2" class="flow delay-1"/>
    <path d="M200 180 L 275 200" stroke="#60A5FA" stroke-width="2" class="flow delay-2"/>
    
    <!-- 服务器间通信线 -->
    <path d="M150 230 L 175 230" stroke="#34D399" stroke-width="2" class="flow"/>
    <path d="M225 230 L 250 230" stroke="#34D399" stroke-width="2" class="flow delay-1"/>
  </g>

  <!-- 数据库集群 -->
  <g class="float delay-2">
    <circle cx="125" cy="80" r="25" fill="#F472B6" opacity="0.2"/>
    <path d="M110 80 H 140" stroke="#F472B6" stroke-width="2"/>
    <path d="M125 65 V 95" stroke="#F472B6" stroke-width="2"/>
    
    <circle cx="275" cy="80" r="25" fill="#F472B6" opacity="0.2"/>
    <path d="M260 80 H 290" stroke="#F472B6" stroke-width="2"/>
    <path d="M275 65 V 95" stroke="#F472B6" stroke-width="2"/>
  </g>

  <!-- 状态指示器 -->
  <g class="blink delay-3">
    <rect x="140" y="40" width="120" height="20" rx="4" fill="#60A5FA" opacity="0.2"/>
    <circle cx="155" cy="50" r="4" fill="#34D399"/>
    <text x="165" y="54" font-size="10" fill="#60A5FA">Cluster Status: OK</text>
  </g>
</svg> 