<svg xmlns="https://www.w3.org/2000/svg" width="900" height="600" viewBox="0 0 900 600" fill="none">
  <!-- 浏览器窗口 - 放大并居中 -->
  <rect x="100" y="50" width="700" height="500" rx="8" fill="#FFFFFF" stroke="#E5E7EB" stroke-width="1"/>
  
  <!-- 浏览器标题栏 -->
  <rect x="100" y="50" width="700" height="40" rx="8" fill="#F9FAFB"/>
  
  <!-- 导航栏按钮 -->
  <circle cx="130" cy="70" r="6" fill="#FF5F57"/>
  <circle cx="150" cy="70" r="6" fill="#FEBC2E"/>
  <circle cx="170" cy="70" r="6" fill="#28C840"/>
  
  <!-- 导航菜单 -->
  <rect x="120" y="110" width="660" height="40" rx="4" fill="#F3F4F6"/>
  <circle cx="150" cy="130" r="15" fill="#60A5FA" opacity="0.6"/>
  <rect x="180" y="125" width="60" height="10" rx="2" fill="#60A5FA" opacity="0.6"/>
  <rect x="260" y="125" width="60" height="10" rx="2" fill="#60A5FA" opacity="0.6"/>
  <rect x="340" y="125" width="60" height="10" rx="2" fill="#60A5FA" opacity="0.6"/>
  
  <!-- 内容区域 -->
  <rect x="120" y="170" width="300" height="200" rx="4" fill="#F3F4F6"/>
  <rect x="440" y="170" width="340" height="360" rx="4" fill="#F3F4F6"/>
  
  <!-- 代码编辑区域 -->
  <rect x="130" y="180" width="280" height="180" rx="4" fill="#FFFFFF"/>
  <rect x="140" y="190" width="180" height="10" rx="2" fill="#60A5FA" opacity="0.4"/>
  <rect x="140" y="210" width="220" height="10" rx="2" fill="#34D399" opacity="0.4"/>
  <rect x="140" y="230" width="200" height="10" rx="2" fill="#F472B6" opacity="0.4"/>
  <rect x="140" y="250" width="240" height="10" rx="2" fill="#60A5FA" opacity="0.4"/>
  
  <!-- 预览区域 -->
  <rect x="450" y="180" width="320" height="340" rx="4" fill="#FFFFFF"/>
  <rect x="460" y="190" width="300" height="150" rx="2" fill="#60A5FA" opacity="0.1"/>
  <rect x="460" y="350" width="140" height="20" rx="2" fill="#60A5FA" opacity="0.6"/>
  <rect x="460" y="380" width="300" height="10" rx="2" fill="#E5E7EB"/>
  <rect x="460" y="400" width="280" height="10" rx="2" fill="#E5E7EB"/>
  <rect x="460" y="420" width="260" height="10" rx="2" fill="#E5E7EB"/>
  
  <!-- 装饰元素 -->
  <circle cx="750" cy="100" r="40" fill="#EFF6FF" opacity="0.7"/>
  <circle cx="180" cy="500" r="30" fill="#EFF6FF" opacity="0.7"/>
  <circle cx="700" cy="450" r="25" fill="#60A5FA" opacity="0.2"/>
</svg> 