<svg xmlns="https://www.w3.org/2000/svg" width="900" height="600" viewBox="0 0 900 600" fill="none">
  <!-- 代码编辑器背景 - 使用浅色背景 -->
  <rect x="150" y="100" width="600" height="400" rx="8" fill="#FFFFFF" stroke="#E5E7EB" stroke-width="1"/>
  
  <!-- 编辑器标题栏 - 浅灰色 -->
  <rect x="150" y="100" width="600" height="30" rx="8" fill="#F9FAFB"/>
  
  <!-- 窗口按钮 -->
  <circle cx="175" cy="115" r="6" fill="#FF5F57"/>
  <circle cx="195" cy="115" r="6" fill="#FEBC2E"/>
  <circle cx="215" cy="115" r="6" fill="#28C840"/>
  
  <!-- 行号区域 - 非常浅的灰色 -->
  <rect x="150" y="130" width="40" height="370" fill="#F9FAFB"/>
  
  <!-- 代码行 - 使用柔和的颜色 -->
  <g fill="#4B5563" opacity="0.6">
    <rect x="200" y="140" width="120" height="10" rx="2"/>
    <rect x="200" y="160" width="180" height="10" rx="2"/>
    <rect x="200" y="180" width="150" height="10" rx="2"/>
  </g>
  
  <!-- 代码高亮 - 使用柔和的蓝色 -->
  <g fill="#60A5FA" opacity="0.8">
    <rect x="200" y="210" width="100" height="10" rx="2"/>
    <rect x="320" y="210" width="80" height="10" rx="2"/>
  </g>
  
  <!-- 使用柔和的紫色 -->
  <g fill="#A78BFA" opacity="0.7">
    <rect x="200" y="240" width="140" height="10" rx="2"/>
    <rect x="200" y="260" width="160" height="10" rx="2"/>
  </g>
  
  <!-- 使用柔和的绿色 -->
  <g fill="#34D399" opacity="0.7">
    <rect x="220" y="290" width="120" height="10" rx="2"/>
    <rect x="220" y="310" width="90" height="10" rx="2"/>
    <rect x="220" y="330" width="140" height="10" rx="2"/>
  </g>
  
  <!-- 装饰性元素 - 使用非常浅的蓝色 -->
  <circle cx="750" cy="150" r="40" fill="#EFF6FF" opacity="0.7"/>
  <circle cx="200" cy="500" r="30" fill="#EFF6FF" opacity="0.7"/>
  
  <!-- 悬浮元素 - 使用柔和的蓝色 -->
  <g opacity="0.6">
    <rect x="650" y="400" width="80" height="80" rx="8" fill="#93C5FD"/>
    <rect x="670" y="420" width="40" height="40" rx="4" fill="#FFFFFF"/>
  </g>
  
  <!-- 添加一些柔和的装饰点缀 -->
  <circle cx="180" cy="450" r="3" fill="#60A5FA" opacity="0.5"/>
  <circle cx="750" cy="250" r="4" fill="#34D399" opacity="0.5"/>
  <circle cx="650" cy="150" r="3" fill="#A78BFA" opacity="0.5"/>
</svg>